<svg height="512pt" viewBox="0 0 512 512" width="512pt" xmlns="http://www.w3.org/2000/svg"><path d="m437.019531 74.980469c-48.351562-48.351563-112.640625-74.980469-181.019531-74.980469s-132.667969 26.628906-181.019531 74.980469c-48.351563 48.351562-74.980469 112.640625-74.980469 181.019531s26.628906 132.667969 74.980469 181.019531c48.351562 48.351563 112.640625 74.980469 181.019531 74.980469s132.667969-26.628906 181.019531-74.980469c48.351563-48.351562 74.980469-112.640625 74.980469-181.019531s-26.628906-132.667969-74.980469-181.019531zm-24.144531 310.617187-3.242188 2.414063c-20.890624 15.558593-46.738281 24.125-72.777343 24.125-.003907 0 0 0-.003907 0-5.089843 0-10.234374-.324219-15.289062-.964844l-148.585938-18.792969-39.339843.007813c-13.359375 0-25.914063-5.199219-35.359375-14.644531-9.445313-9.441407-14.648438-22-14.648438-35.355469v-120.371094c0-27.570313 22.429688-50 50-50h48.066406l8.167969-3c9.066407-3.335937 16.1875-10.832031 19.050781-20.054687l17.238282-55.53125c7.855468-25.292969 30.917968-42.285157 57.390625-42.285157 6.605469 0 13.136719 1.085938 19.421875 3.230469 26.542968 9.0625 43.148437 34.882812 40.386718 62.792969l-3.121093 31.511719 10.847656-2.351563c5.3125-1.152344 10.753906-1.734375 16.1875-1.734375 12.742187 0 25.390625 3.226562 36.574219 9.328125 24.546875 13.390625 39.792968 39.078125 39.792968 67.039063v103.390624c-.003906 24.007813-11.5 46.90625-30.757812 61.246094zm0 0"/><path d="m389.472656 180.257812c-9.777344-5.335937-21.152344-6.972656-32.035156-4.609374l-51.121094 11.085937 7.179688-72.519531c1.378906-13.910156-7-26.933594-20.222656-31.449219-16.042969-5.476563-33.441407 3.371094-38.464844 19.558594l-17.242188 55.527343c-5.40625 17.414063-18.285156 31.449219-35.050781 38.398438l-12.75 168.015625 135.5625 17.144531c23.550781 2.980469 47.34375-3.277344 66.386719-17.457031l3.242187-2.417969c11.75-8.75 18.671875-22.535156 18.671875-37.183594v-103.394531c0-16.964843-9.265625-32.574219-24.15625-40.699219zm0 0"/><path d="m113.628906 222.015625v120.371094c0 11.046875 8.957032 20 20.003906 20l26.1875-.003907 12.171876-160.367187h-38.363282c-11.042968 0-20 8.957031-20 20zm0 0"/></svg>